<svg xmlns="http://www.w3.org/2000/svg" width="15" height="15" viewBox="0 0 15 15">
    <g fill="#38424B" fill-rule="evenodd">
        <path d="M.172.603A.172.172 0 0 0 0 .776v13.88c0 .094.077.172.172.172h13.83a.173.173 0 0 0 .172-.173V4.12a.174.174 0 0 0-.172-.175.173.173 0 0 0-.123.051.173.173 0 0 0-.05.124v10.364H.345V.948h10.348a.172.172 0 1 0 0-.345H.173z"/>
        <path d="M12.03 0a.172.172 0 1 0 0 .345h2.212L10.22 4.384a.172.172 0 1 0 .245.243L14.483.59v2.217c0 .047.017.091.05.124a.171.171 0 0 0 .245 0 .17.17 0 0 0 .05-.124V.172A.172.172 0 0 0 14.655 0H12.03z"/>
    </g>
</svg>
