<svg xmlns="http://www.w3.org/2000/svg" width="14" height="14" viewBox="0 0 14 14">
    <g fill="#38424B" fill-rule="evenodd">
        <path d="M4.06 10.14c.04.04.1.06.14.06.04 0 .1-.02.14-.06L7 7.48l2.66 2.66c.04.04.1.06.14.06.04 0 .1-.02.14-.06.08-.08.08-.2 0-.28L7.28 7.2l2.66-2.66c.08-.08.08-.2 0-.28a.193.193 0 0 0-.28 0L7 6.92 4.34 4.26a.193.193 0 0 0-.28 0c-.08.08-.08.2 0 .28L6.72 7.2 4.06 9.86c-.08.08-.08.2 0 .28z"/>
        <path d="M11.4 14c1.44 0 2.6-1.16 2.6-2.6V2.6C14 1.16 12.84 0 11.4 0H2.6C1.16 0 0 1.16 0 2.6v8.8C0 12.84 1.16 14 2.6 14h8.8zm-11-2.6V2.6C.4 1.38 1.38.4 2.6.4h8.8c1.22 0 2.2.98 2.2 2.2v8.8c0 1.22-.98 2.2-2.2 2.2H2.6c-1.22 0-2.2-.98-2.2-2.2z"/>
    </g>
</svg>
