<svg xmlns="http://www.w3.org/2000/svg" width="16" height="13" viewBox="0 0 16 13">
    <g fill="#38424B" fill-rule="evenodd">
        <path d="M11.004 12.933a.292.292 0 0 0 .167-.063l4.33-4.075a.257.257 0 0 0 .007-.358c-.093-.096-.26-.107-.358-.016l-3.9 3.669V.455a.255.255 0 0 0-.508 0V12.09l-3.9-3.669c-.097-.091-.274-.082-.366.016-.091.098-.09.252.016.358l4.33 4.075c.059.049.12.066.182.063z"/>
        <path d="M4.434 0a.282.282 0 0 0-.162.063L.074 4.045a.253.253 0 0 0-.007.35c.09.094.252.105.347.015L4.195.825v11.37c0 .138.11.25.247.25a.248.248 0 0 0 .247-.25V.826l3.78 3.585c.095.09.267.08.356-.015.089-.096.087-.246-.016-.35L4.612.063A.252.252 0 0 0 4.434 0z"/>
    </g>
</svg>
