<svg xmlns="http://www.w3.org/2000/svg" width="18" height="17" viewBox="0 0 18 17">
    <path fill="#38424B" fill-rule="evenodd" stroke="#38424B" stroke-width=".1" d="M14.169 15.92a.193.193 0 0 0 .037-.16l-1.11-5.234 4.066-3.601a.196.196 0 0 0 .06-.21.206.206 0 0 0-.175-.138l-5.47-.597-2.274-4.863A.207.207 0 0 0 9.116 1a.206.206 0 0 0-.188.118L6.655 5.98l-5.471.598a.204.204 0 0 0-.174.137.197.197 0 0 0 .058.21l4.066 3.6-1.11 5.236a.198.198 0 0 0 .082.2c.066.046.152.051.222.013l4.788-2.64 4.787 2.64a.21.21 0 0 0 .266-.054zm-.46-.512l-4.493-2.477h.001a.21.21 0 0 0-.203 0l-4.493 2.477 1.04-4.913a.197.197 0 0 0-.063-.188L1.684 6.924l5.133-.557a.206.206 0 0 0 .164-.115l2.134-4.57 2.134 4.57c.03.063.093.107.164.115l5.134.557-3.814 3.383a.197.197 0 0 0-.064.188l1.04 4.913z"/>
</svg>
