<svg xmlns="http://www.w3.org/2000/svg" width="17" height="17" viewBox="0 0 17 17">
    <g fill="#38424B" fill-rule="evenodd">
        <path d="M7.588 7.516a.296.296 0 0 0 .322.066.287.287 0 0 0 .183-.266V.288A.291.291 0 0 0 7.8 0C5.848 0 4 .733 2.595 2.062a.284.284 0 0 0-.007.407l5 5.047zM7.505.58v6.024L3.221 2.28A6.932 6.932 0 0 1 7.505.58zM7.775 8.818a.285.285 0 0 0-.082-.226l-5-5.047a.295.295 0 0 0-.207-.087.306.306 0 0 0-.209.08C.81 4.93 0 6.797 0 8.793c0 1.525.477 2.987 1.38 4.228a.3.3 0 0 0 .41.069l5.862-4.064a.281.281 0 0 0 .123-.207zM1.693 12.45A6.584 6.584 0 0 1 .588 8.792c0-1.743.67-3.378 1.891-4.636L7.031 8.75l-5.338 3.7z"/>
        <path d="M16.848 9.524a7.524 7.524 0 0 0-.305-2.063 7.197 7.197 0 0 0-.504-1.253 7.426 7.426 0 0 0-1.842-2.306A7.668 7.668 0 0 0 9.53 2.097a8.448 8.448 0 0 0-.305-.007.432.432 0 0 0-.437.427v6.806l-5.678 3.935a.422.422 0 0 0-.105.597l.029.037a7.726 7.726 0 0 0 1.916 1.823c.07.045.142.09.214.133l.042.025a7.79 7.79 0 0 0 .89.465 7.73 7.73 0 0 0 .997.36c.265.075.514.135.763.179.12.022.242.038.363.054.331.043.662.066.975.067h.03a7.684 7.684 0 0 0 2.045-.274 7.624 7.624 0 0 0 4.658-3.63 7.303 7.303 0 0 0 .774-2.092 7.45 7.45 0 0 0 .147-1.457v-.02zm-.599.39a6.727 6.727 0 0 1-.84 2.906 7.11 7.11 0 0 1-2.837 2.774c-.46.245-.952.44-1.463.577a6.938 6.938 0 0 1-1.885.253h-.02a7.18 7.18 0 0 1-2.867-.609 7.254 7.254 0 0 1-.82-.43l-.043-.026a5.646 5.646 0 0 1-.194-.12 7.338 7.338 0 0 1-1.2-1.008 7.221 7.221 0 0 1-.504-.59l5.676-3.934a.286.286 0 0 0 .123-.234V2.668c.043 0 .087.003.131.005a7.098 7.098 0 0 1 1.124.13 7.51 7.51 0 0 1 .983.272 7.184 7.184 0 0 1 .937.41 6.502 6.502 0 0 1 .773.475 6.964 6.964 0 0 1 1.305 1.187 7.122 7.122 0 0 1 .57.77 6.862 6.862 0 0 1 .778 1.704 6.549 6.549 0 0 1 .219 1.017c.04.302.062.6.063.887v.02c.001.124-.003.248-.009.37z"/>
    </g>
</svg>
