<svg xmlns="http://www.w3.org/2000/svg" width="15" height="15" viewBox="0 0 15 15">
    <g fill="" fill-rule="evenodd">
        <path d="M10.72 10.207c2.085-2.341 1.975-5.927-.256-8.16a5.964 5.964 0 0 0-8.452 0 5.964 5.964 0 0 0 0 8.453 5.962 5.962 0 0 0 4.207 1.756 5.985 5.985 0 0 0 3.952-1.5l3.878 3.878c.073.073.183.11.256.11a.396.396 0 0 0 .256-.11c.183-.183.183-.403.036-.549l-3.877-3.878zM2.56 9.95a5.21 5.21 0 0 1 0-7.39 5.177 5.177 0 0 1 3.696-1.536A5.18 5.18 0 0 1 9.953 2.56a5.21 5.21 0 0 1 0 7.39 5.212 5.212 0 0 1-7.392 0z"/>
        <path d="M6.257 1.94a4.25 4.25 0 0 0-3.804 2.305c-.11.182-.037.403.145.511.073.037.11.037.183.037a.383.383 0 0 0 .33-.183 3.58 3.58 0 0 1 3.182-1.902c.22 0 .366-.146.366-.366s-.22-.403-.402-.403z"/>
    </g>
</svg>
