<svg xmlns="http://www.w3.org/2000/svg" width="18" height="15" viewBox="0 0 18 15">
    <path fill="#38424B" fill-rule="evenodd" d="M5.882 0C4.29 0 2.844.304 1.784.812c-1.03.493-1.73 1.2-1.77 2.034 0 .008-.007.008-.007.015v.008C0 2.884 0 2.907 0 2.929v7.212c0 .866.715 1.594 1.776 2.111 1.07.51 2.515.812 4.107.812.6 0 1.176-.046 1.722-.13A5.446 5.446 0 0 0 11.881 15a5.483 5.483 0 0 0 5.475-5.481c0-3.03-2.454-5.489-5.475-5.489h-.131v-1.1c.007-.023 0-.046 0-.061v-.015c-.007 0-.007-.008-.007-.015-.046-.828-.746-1.534-1.77-2.027C8.906.302 7.474 0 5.883 0zm0 .432c1.53 0 2.914.304 3.899.775.962.463 1.515 1.07 1.537 1.685v.037c0 .44-.277.888-.791 1.275 0 .008-.008 0-.008 0a5.614 5.614 0 0 0-1.807.843c-.83.235-1.792.379-2.83.379-1.538 0-2.93-.296-3.914-.775C1.044 4.211.499 3.635.438 3.05v-.12c0-.023-.008-.04-.008-.054.031-.607.577-1.207 1.538-1.67C2.95.736 4.343.432 5.882.432zM.437 4.046c.309.387.777.729 1.347 1.002 1.061.509 2.507.813 4.098.813.738 0 1.446-.06 2.099-.19a5.45 5.45 0 0 0-1.285 2.102 9.538 9.538 0 0 1-.822.038c-1.538 0-2.922-.296-3.907-.774-.983-.47-1.53-1.093-1.53-1.724V4.046zm11.442.417a5.045 5.045 0 0 1 5.045 5.057 5.046 5.046 0 0 1-5.045 5.056c-2.783 0-5.037-2.262-5.037-5.056s2.253-5.057 5.037-5.057zM.438 6.438c.308.386.776.721 1.338.994 1.062.509 2.508.805 4.1.805.237 0 .46-.007.69-.023-.099.418-.153.857-.153 1.306 0 .273.016.547.054.804a7.718 7.718 0 0 1-.592.023c-1.538 0-2.922-.303-3.906-.774-.984-.47-1.53-1.1-1.53-1.73v-.016l-.001-1.39zm0 2.527c.308.388.776.722 1.338.995 1.062.509 2.508.812 4.1.812.23 0 .445 0 .669-.015.154.644.415 1.252.776 1.783-.46.061-.938.1-1.437.1-1.538 0-2.93-.297-3.915-.775C.986 11.394.44 10.77.44 10.14L.436 8.965h.002z"/>
</svg>
