<svg xmlns="http://www.w3.org/2000/svg" width="13" height="16" viewBox="0 0 13 16">
    <path fill="#B6BFCE" fill-rule="evenodd" d="M12.611 3.862H8.528c.541-.223 1.04-.495 1.293-.749.367-.367.57-.848.57-1.354A1.758 1.758 0 0 0 9.877.511 1.75 1.75 0 0 0 8.63 0a1.91 1.91 0 0 0-1.354.57c-.233.233-.578.864-.841 1.54-.24-.632-.554-1.249-.847-1.542A1.91 1.91 0 0 0 4.235 0c-.475 0-.919.182-1.248.51a1.75 1.75 0 0 0-.51 1.301c.013.487.214.95.566 1.303.255.254.754.527 1.294.75H.39A.388.388 0 0 0 0 4.25v10.425c0 .215.173.388.389.388H12.61a.387.387 0 0 0 .389-.388V4.25a.388.388 0 0 0-.389-.389zm-9.02-1.298a1.141 1.141 0 0 1-.34-.774.979.979 0 0 1 .284-.73.98.98 0 0 1 .7-.283c.298 0 .584.12.804.34.41.411.932 1.868 1 2.446-.64-.073-2.06-.613-2.448-.999zm2.52 11.724H.777v-4.63h5.336v4.63zm0-5.406H.777V4.639h5.336v4.243zm1.715-7.763c.22-.222.507-.342.805-.342a.98.98 0 0 1 .698.283.977.977 0 0 1 .286.7c0 .298-.12.585-.342.804-.385.386-1.807.926-2.447.998.068-.579.59-2.034 1-2.444zm4.398 13.169H6.888v-4.63h5.337l-.001 4.63zm0-5.406H6.888V4.639h5.337l-.001 4.243z"/>
</svg>
