<svg xmlns="http://www.w3.org/2000/svg" width="15" height="14" viewBox="0 0 15 14">
    <g fill="#2E86AB" fill-rule="evenodd" stroke="#2E86AB" stroke-width=".1">
        <path d="M11.535 12.936a.154.154 0 0 0 .03-.127l-.888-4.188L13.93 5.74a.157.157 0 0 0 .047-.168.165.165 0 0 0-.14-.11l-4.376-.478-1.818-3.89A.165.165 0 0 0 7.493 1a.165.165 0 0 0-.15.094l-1.819 3.89-4.377.478a.163.163 0 0 0-.14.11.157.157 0 0 0 .048.168l3.252 2.88-.887 4.189a.158.158 0 0 0 .065.16.17.17 0 0 0 .177.01l3.83-2.112 3.83 2.112a.168.168 0 0 0 .213-.043zm-.368-.41l-3.594-1.98v-.002a.168.168 0 0 0-.162 0l-3.594 1.982.831-3.93h.001a.157.157 0 0 0-.05-.15L1.546 5.739l4.107-.446a.165.165 0 0 0 .131-.092l1.707-3.656L9.2 5.2c.025.051.075.086.132.092l4.107.446-3.052 2.707a.157.157 0 0 0-.05.15l.831 3.93z"/>
        <path fill-rule="nonzero" d="M9.475 4.956L7.587 1.652a.1.1 0 0 0-.174 0L5.525 4.956a.1.1 0 0 1-.076.05l-4.22.469a.1.1 0 0 0-.054.175l3.28 2.811a.1.1 0 0 1 .032.098l-.935 4.208a.1.1 0 0 0 .15.107l3.745-2.34a.1.1 0 0 1 .106 0l3.745 2.34a.1.1 0 0 0 .15-.107l-.935-4.208a.1.1 0 0 1 .033-.098l3.28-2.811a.1.1 0 0 0-.055-.175l-4.22-.47a.1.1 0 0 1-.076-.05z"/>
    </g>
</svg>
