<svg xmlns="http://www.w3.org/2000/svg" width="18" height="13" viewBox="0 0 18 13">
    <path fill="#B6BFCE" fill-rule="evenodd" d="M15.71 10.204v-5.42h-.004l1.653-.766L8.68 0 0 4.018 3.545 5.66v2.905c0 1.401 2.256 2.499 5.135 2.499s5.134-1.098 5.134-2.5V5.66l1.2-.555v5.1a1.308 1.308 0 0 0-.96 1.258 1.308 1.308 0 0 0 2.615 0 1.31 1.31 0 0 0-.958-1.258zM8.68.769l7.019 3.25-7.02 3.249-7.018-3.25L8.68.768zm4.437 7.795c0 .852-1.823 1.801-4.437 1.801-2.616 0-4.437-.95-4.437-1.801V5.982L8.68 8.036l4.437-2.054v2.582zm2.245 3.508a.61.61 0 1 1 .002-1.22.61.61 0 0 1-.002 1.22z"/>
</svg>
