<svg xmlns="http://www.w3.org/2000/svg" width="22" height="17" viewBox="0 0 22 17">
    <g fill="#38424B" fill-rule="evenodd">
        <path d="M7.178 9.966h9.594l-1.724-6.377H8.904L7.178 9.966zm7.48-5.812L16.083 9.4H7.838l1.454-5.246h5.366zM12.278 16.766h9.594l-1.724-6.377h-6.144l-1.726 6.377zm7.48-5.812l1.425 5.246h-8.245l1.454-5.246h5.366zM2.211 16.766h9.595l-1.725-6.377H3.937L2.21 16.766zm7.48-5.812l1.425 5.246H2.87l1.454-5.246h5.367zM1.142 3.02l.308 1.133.318-1.135c.103-.388.15-.52.474-.682l.502-.253-.502-.252c-.323-.162-.372-.3-.481-.712L1.45.014l-.307 1.135c-.102.39-.15.52-.474.682l-.5.252.5.253c.322.162.37.294.473.684zm.312-1.127c.046.07.099.133.16.19-.062.058-.114.12-.16.19a1.05 1.05 0 0 0-.159-.19 1.08 1.08 0 0 0 .16-.19zM4.16 5.381l-.309-1.122-.275.973a5.64 5.64 0 0 0-.04.15c-.104.39-.152.52-.475.682l-.502.253.502.252c.324.163.371.294.474.681l.04.152.276.977.31-1.127c.103-.39.15-.52.474-.683l.502-.252-.502-.253c-.323-.162-.372-.293-.475-.683zm-.312 1.126a1.05 1.05 0 0 0-.159-.19c.062-.057.114-.12.16-.19.045.07.098.133.158.19a1.05 1.05 0 0 0-.159.19zM6.064 1.147L5.757.01l-.319 1.137c-.103.39-.151.52-.474.683l-.5.252.501.253c.323.162.372.294.474.685l.318 1.133.307-1.136c.103-.388.15-.52.474-.682l.502-.253-.502-.252c-.322-.163-.37-.294-.474-.684zm-.312 1.126a1.05 1.05 0 0 0-.159-.19c.062-.058.114-.12.16-.19.045.07.098.133.158.19-.061.058-.113.12-.159.19z"/>
    </g>
</svg>
