<svg xmlns="http://www.w3.org/2000/svg" width="13" height="13" viewBox="0 0 13 13">
    <path fill="#B6BFCE" fill-rule="evenodd" d="M.951 0A.956.956 0 0 0 0 .951v8.244c0 .522.43.951.951.951h1.903v1.903c0 .521.43.951.95.951h8.245c.521 0 .951-.43.951-.951V3.805a.956.956 0 0 0-.951-.951h-1.903V.95A.956.956 0 0 0 9.196 0H.95zm0 .634h8.244a.31.31 0 0 1 .317.317v1.903H3.805a.956.956 0 0 0-.951.95v5.708H.95a.31.31 0 0 1-.317-.317V.951A.31.31 0 0 1 .951.634zm2.854 2.854h8.244a.31.31 0 0 1 .317.317v8.244a.31.31 0 0 1-.317.317H3.805a.31.31 0 0 1-.317-.317V3.805a.31.31 0 0 1 .317-.317zM5.202 5.39a.316.316 0 1 0 .03.634h5.39a.318.318 0 0 0 .321-.317.318.318 0 0 0-.321-.317h-5.42zm0 2.22a.316.316 0 1 0 .03.634h5.39a.318.318 0 0 0 .321-.317.318.318 0 0 0-.321-.317h-5.42zm0 2.22a.316.316 0 1 0 .03.634h5.39a.318.318 0 0 0 .321-.318.318.318 0 0 0-.321-.317h-5.42z"/>
</svg>
