<svg xmlns="http://www.w3.org/2000/svg" width="14" height="14" viewBox="0 0 14 14">
    <g fill="none" fill-rule="evenodd">
        <path stroke="#B6BFCE" stroke-width=".7" d="M4.168 12.508l2.71-2.167H12a1.65 1.65 0 0 0 1.65-1.65V2A1.65 1.65 0 0 0 12 .35H2A1.65 1.65 0 0 0 .35 2v6.69c0 .912.739 1.65 1.65 1.65h2.168v2.168z"/>
        <path fill="#B6BFCE" d="M7 6.876c.411 0 .736.361.736.818 0 .457-.325.819-.736.819s-.736-.362-.736-.819c0-.457.325-.818.736-.818zm.65-4.944c.239.169.217.245.217.398l-.282 3.828c-.022.444-1.17.444-1.192 0L6.111 2.33c-.022-.153.065-.29.217-.398.325-.23 1.105-.169 1.322 0z"/>
    </g>
</svg>
