<svg xmlns="http://www.w3.org/2000/svg" width="15" height="15" viewBox="0 0 15 15">
    <g fill="none" fill-rule="evenodd">
        <rect width="14.3" height="14.3" x=".35" y=".35" fill-rule="nonzero" stroke="#38424B" stroke-width=".7" rx=".5"/>
        <path fill="#38424B" d="M2.162 14.5c.236-.47.759-1.739.978-2.226.758-1.661 1.618-3.52 2.612-3.737.405-.09.826.109 1.315.56.826.794 1.567 1.083 2.259.885 1.415-.415 2.123-2.816 2.865-5.398l.742.253-.473-2.311-1.635 1.607.742.252c-.624 2.185-1.348 4.586-2.41 4.91-.439.127-.994-.108-1.635-.722-.64-.613-1.28-.866-1.888-.74-1.314.271-2.224 2.239-3.1 4.116a17 17 0 0 0-.372.812L1.5 14.5h.662z"/>
    </g>
</svg>
