<svg xmlns="http://www.w3.org/2000/svg" width="15" height="13" viewBox="0 0 15 13">
    <path fill="#B6BFCE" fill-rule="evenodd" d="M13.93 4.425L7.106 0 .387 4.408c-.235.189-.387.48-.387.806v6.757C0 12.537.454 13 1.008 13h12.283c.554 0 1.008-.463 1.008-1.03V5.232a.969.969 0 0 0-.37-.806zM7.106.823l6.268 4.048-.034.017-4.368 3.55-1.765-1.423a.23.23 0 0 0-.1-.035c-.034 0-.068.018-.102.035l-1.73 1.39L.958 4.887 7.108.823zM.672 11.99V5.23c0-.034 0-.051.017-.085l4.302 3.481-4.285 3.465c-.017-.034-.034-.069-.034-.103zm.353.343H.958l6.15-4.957 6.15 4.974H1.025v-.017zm12.619-.343c0 .068-.017.12-.05.171L9.24 8.662l4.386-3.55c.017.034.017.068.017.12v6.757z"/>
</svg>
