<?xml version="1.0" encoding="UTF-8"?>
<svg width="15px" height="14px" viewBox="0 0 15 14" version="1.1" xmlns="http://www.w3.org/2000/svg" xmlns:xlink="http://www.w3.org/1999/xlink">
    <!-- Generator: Sketch 52.5 (67469) - http://www.bohemiancoding.com/sketch -->
    <title>favorites</title>
    <desc>Created with Sketch.</desc>
    <g id="icons" stroke="none" stroke-width="1" fill="none" fill-rule="evenodd">
        <g id="instrument-list-icons" transform="translate(-32.000000, -39.000000)" fill="#38424B" stroke="#38424B" stroke-width="0.5">
            <path d="M43.5470632,51.9361207 C43.5756132,51.8993655 43.5863995,51.8531035 43.5768817,51.8087428 L42.688645,47.6205659 L45.9446576,44.7396531 C45.9935116,44.6978281 46.0119104,44.6319215 45.9922414,44.5717107 C45.9719391,44.5115081 45.9173761,44.4684145 45.8526618,44.4614434 L41.4705988,43.983622 L39.6503697,40.0937895 C39.6237232,40.0367552 39.5647197,40 39.5000055,40 C39.4352913,40 39.3762877,40.0367552 39.3496413,40.0944238 L37.5294122,43.9842563 L33.1473491,44.4620777 C33.0826349,44.4684145 33.0280719,44.5115065 33.0077695,44.5717107 C32.9881022,44.6319134 33.006501,44.69782 33.0547183,44.7396531 L36.3107309,47.6205659 L35.4224942,51.8087428 C35.4104394,51.8702141 35.4358174,51.9329507 35.4878434,51.9690733 C35.5405029,52.0058285 35.6096576,52.0096312 35.6654973,51.9792128 L39.5000461,49.8669544 L43.3345949,51.9792128 C43.3631449,51.9950563 43.3961371,52.0020258 43.4291276,51.9994917 C43.476005,51.9956906 43.5185132,51.9722416 43.5470632,51.9361207 Z M43.1790771,51.526732 L39.580523,49.5450702 L39.5811581,49.5444375 C39.5304022,49.5165531 39.4694951,49.5165531 39.4187392,49.5444375 L35.8201851,51.5260993 L36.6525822,47.5957088 L36.6532156,47.5957088 C36.6646369,47.5405759 36.645603,47.4835401 36.6024597,47.4455178 L33.5475218,44.7394909 L37.6593197,44.2933534 C37.7164197,44.287015 37.7665422,44.2521611 37.7906501,44.2014636 L39.4997846,40.5449205 L41.2089191,44.2014636 C41.2330286,44.2521611 41.2831495,44.287015 41.3402495,44.2933534 L45.4520474,44.7394909 L42.3971095,47.4455178 C42.3539678,47.4835417 42.3349339,47.5405759 42.3463536,47.5957088 L43.1787507,51.5260993 L43.1790771,51.526732 Z" id="favorites"></path>
        </g>
    </g>
</svg>