<svg xmlns="http://www.w3.org/2000/svg" width="13" height="17" viewBox="0 0 13 17">
    <g fill="none" fill-rule="evenodd" stroke="#38424B">
        <path fill="#38424B" stroke-width=".5" d="M9.97 1.005a.147.147 0 0 0-.026.012.15.15 0 0 0-.063.061l-5.158 8.935a.152.152 0 0 0-.018.098l.293 1.918a.153.153 0 0 0 .074.107c.04.023.087.026.13.01l1.808-.705a.153.153 0 0 0 .076-.064l5.158-8.935a.152.152 0 0 0-.055-.206l-2.102-1.214a.152.152 0 0 0-.117-.017zm.1.356l1.834 1.06-.455.79-1.835-1.06.456-.79zm-.607 1.05l1.835 1.06-4.447 7.71-1.586.62-.251-1.69 4.45-7.699h-.001z"/>
        <path fill-rule="nonzero" stroke-linecap="round" stroke-width=".7" d="M4.96 4.188H1V16h11.414V6.04"/>
    </g>
</svg>
