<?xml version="1.0" encoding="UTF-8"?>
<svg width="13px" height="15px" viewBox="0 0 13 15" version="1.1" xmlns="http://www.w3.org/2000/svg" xmlns:xlink="http://www.w3.org/1999/xlink">
    <!-- Generator: Sketch 52.5 (67469) - http://www.bohemiancoding.com/sketch -->
    <title>priceAlert</title>
    <desc>Created with Sketch.</desc>
    <g id="icons" stroke="none" stroke-width="1" fill="none" fill-rule="evenodd">
        <g id="instrument-list-icons" transform="translate(-52.000000, -40.000000)" fill="#38424B" stroke="#38424B" stroke-width="0.5">
            <path d="M59.5518149,39.9788445 C59.0163343,39.9788445 58.5795926,40.4155862 58.5795926,40.9510667 L58.5795926,41.643775 C56.5744815,42.085825 55.0795926,43.866275 55.0795926,46.0067195 L55.0795926,49.7011639 L54.8851482,49.7011639 C54.2418093,49.7011639 53.7184815,50.2244917 53.7184815,50.8678306 C53.7184815,51.5111695 54.2418093,52.0344973 54.8851482,52.0344973 L64.2184815,52.0344973 C64.8618204,52.0344973 65.3851482,51.5111695 65.3851482,50.8678306 C65.3851482,50.2244917 64.8618204,49.7011639 64.2184815,49.7011639 L64.0240371,49.7011639 L64.0240371,46.0067195 C64.0240371,43.866275 62.5292454,42.0859417 60.5240371,41.643775 L60.5240371,40.9510667 C60.5240371,40.4155862 60.0872954,39.9788445 59.5518149,39.9788445 Z M59.5518149,40.3677334 C59.8784232,40.3677334 60.1351482,40.6244584 60.1351482,40.9510667 L60.1351482,41.5769445 C59.943741,41.5518787 59.750051,41.5344098 59.5518149,41.5344098 C59.3535787,41.5344098 59.1598926,41.5518787 58.9684815,41.5769445 L58.9684815,40.9510667 C58.9684815,40.6244584 59.2252065,40.3677334 59.5518149,40.3677334 Z M59.5518149,41.9232889 C61.8174815,41.9232889 63.6351482,43.7408973 63.6351482,46.0066223 L63.6351482,49.8955112 C63.6351482,50.0026073 63.7224965,50.0899556 63.8295926,50.0899556 L64.2184815,50.0899556 C64.6529482,50.0899556 64.9962593,50.4332667 64.9962593,50.8677334 C64.9962593,51.3022 64.6529482,51.6455112 64.2184815,51.6455112 L54.8851482,51.6455112 C54.4506815,51.6455112 54.1073704,51.3022 54.1073704,50.8677334 C54.1073704,50.4332667 54.4506815,50.0899556 54.8851482,50.0899556 L55.2740371,50.0899556 C55.3811332,50.0899556 55.4684815,50.0026073 55.4684815,49.8955112 L55.4684815,46.0066223 C55.4684815,43.7409556 57.2860899,41.9232889 59.5518149,41.9232889 Z M58.3851482,52.2288445 L58.3851482,52.8121778 C58.3851482,53.4555167 58.908476,53.9788445 59.5518149,53.9788445 C60.1951537,53.9788445 60.7184815,53.4555167 60.7184815,52.8121778 L60.7184815,52.2288445 L60.3295926,52.2288445 L60.3295926,52.8121778 C60.3295926,53.2466445 59.9862815,53.5899556 59.5518149,53.5899556 C59.1173482,53.5899556 58.7740371,53.2466445 58.7740371,52.8121778 L58.7740371,52.2288445 L58.3851482,52.2288445 Z" id="priceAlert" transform="translate(59.551815, 46.978844) rotate(30.000000) translate(-59.551815, -46.978844) "></path>
        </g>
    </g>
</svg>