<svg xmlns="http://www.w3.org/2000/svg" width="21" height="18" viewBox="0 0 21 18">
    <g fill="#FFF" fill-rule="evenodd">
        <path d="M15.99 3.268H1.402a1.39 1.39 0 0 0-1.39 1.39v9.35a1.39 1.39 0 0 0 1.39 1.388h1.482c.134 0 .256.073.322.188l1.02 1.79c.183.32.511.517.88.523h.022c.36 0 .687-.18.877-.486l1.155-1.842a.371.371 0 0 1 .315-.174h8.516a1.39 1.39 0 0 0 1.389-1.388v-9.35a1.392 1.392 0 0 0-1.39-1.388zm.724 10.74c0 .4-.324.723-.723.723H7.475c-.36 0-.688.182-.878.486l-1.155 1.842a.362.362 0 0 1-.323.173.364.364 0 0 1-.314-.187l-1.02-1.791a1.04 1.04 0 0 0-.902-.525L1.4 14.73a.723.723 0 0 1-.722-.722l-.001-9.35c0-.4.324-.723.722-.723h14.59c.4 0 .723.324.723.722v9.352z"/>
        <path d="M19.599.102H5.01a1.39 1.39 0 0 0-1.389 1.39v.45a.333.333 0 1 0 .666 0V1.49c0-.4.325-.722.723-.722H19.6c.4 0 .722.324.722.722v9.35c0 .4-.324.723-.722.723h-.614a.333.333 0 1 0 0 .666h.614a1.39 1.39 0 0 0 1.388-1.388V1.49a1.391 1.391 0 0 0-1.39-1.389z"/>
        <path d="M13.771 6.201H3.621a.333.333 0 1 0 0 .666h10.152a.333.333 0 1 0-.002-.666zM13.771 9H3.621a.333.333 0 1 0 0 .666h10.152A.333.333 0 1 0 13.771 9zM13.771 11.798H3.621a.333.333 0 1 0 0 .666h10.152a.333.333 0 1 0-.002-.666z"/>
    </g>
</svg>
