<?xml version="1.0" encoding="UTF-8"?>
<svg width="13px" height="14px" viewBox="0 0 13 14" version="1.1" xmlns="http://www.w3.org/2000/svg" xmlns:xlink="http://www.w3.org/1999/xlink">
    <!-- Generator: Sketch 52.5 (67469) - http://www.bohemiancoding.com/sketch -->
    <title>Combined Shape</title>
    <desc>Created with Sketch.</desc>
    <g id="icons" stroke="none" stroke-width="1" fill="none" fill-rule="evenodd">
        <g id="instrument-list-icons" transform="translate(-54.000000, -13.000000)" fill="#2E86AB">
            <path d="M65.2443932,15.5275557 C65.1954448,15.6297641 65.1394662,15.7400972 65.0764575,15.8585548 C66.5794798,17.2454595 66.9775852,19.525579 65.9109354,21.3730707 L64.0809679,24.5426674 C64.2460281,24.6343974 64.3762006,24.7377566 64.4714855,24.852745 C64.837518,25.2168325 64.9291841,25.795736 64.6591367,26.2634719 C64.3374672,26.8206197 63.6225882,27.012171 63.0654404,26.6905016 L60.065533,24.9585043 L59.6455112,25.6139927 C59.3238417,26.1711405 58.6089627,26.3626918 58.0518149,26.0410223 C57.494667,25.7193529 57.3031158,25.0044738 57.6247852,24.447326 L58.0111904,23.772429 L54.9825366,22.0238349 C54.4253888,21.7021655 54.2338375,20.9872864 54.5555069,20.4301386 C54.8771764,19.8729908 55.5920554,19.6814395 56.1492032,20.003109 L56.3175971,20.1003312 L58.1648193,16.9008484 C59.2350415,15.0471692 61.4198783,14.2526987 63.3773804,14.8724277 L63.7237346,14.2725247 C63.9914749,13.8087849 64.5880751,13.6489264 65.0518149,13.9166667 C65.5155546,14.1844069 65.6754132,14.7810072 65.4076729,15.2447469 L65.2443932,15.5275557 Z" id="Combined-Shape"></path>
        </g>
    </g>
</svg>