<svg xmlns="http://www.w3.org/2000/svg" width="12" height="13" viewBox="0 0 12 13">
    <g fill="#B6BFCE" fill-rule="evenodd">
        <path d="M10.147 2.34V11.358c0 .045-.002.09-.006.134-.001.02-.014.041.002-.017a1.784 1.784 0 0 1-.025.129c-.011.05-.034.099-.048.149-.01.036.023-.049.007-.016l-.016.033a.745.745 0 0 1-.043.08c-.01.017-.066.13-.084.129 0 0 .044-.054.01-.014l-.023.028a.993.993 0 0 1-.06.066c-.037.036-.077.068-.114.102-.027.025.044-.03.012-.01a1.494 1.494 0 0 1-.177.108c-.01.006-.055.035-.066.03l.016-.006c-.011.005-.023.008-.034.012-.029.01-.058.02-.089.028-.023.007-.048.012-.071.018a.28.28 0 0 1-.038.006c-.005.001-.068.01-.02.005.044-.006 0 0-.01 0l-.039.002-.087.003H2.685l-.076-.004s-.036-.001-.038-.005c.014.017.056.009.008 0a1.368 1.368 0 0 1-.24-.066c-.038-.012.004.01.015.007a1.446 1.446 0 0 1-.177-.094c-.021-.012-.04-.028-.06-.04-.043-.029.011.011.012.011-.01-.001-.027-.022-.034-.029a1.238 1.238 0 0 1-.16-.158 1.082 1.082 0 0 1-.105-.168l-.03-.065c-.024-.049.005.016.006.016-.006-.002-.014-.036-.017-.044a1.097 1.097 0 0 1-.045-.16c-.003-.01-.022-.076-.015-.082 0 0 .006.071.002.016l-.002-.038c-.003-.032-.003-.066-.005-.097V2.336c0-.145-.127-.283-.276-.276a.281.281 0 0 0-.276.276v8.563c0 .196-.013.397.007.593.052.5.327.955.767 1.21.251.145.533.21.822.21H9.11c.297 0 .591-.07.845-.228.437-.27.71-.736.74-1.248.005-.065.003-.13.003-.194V2.335c0-.145-.126-.283-.275-.276-.15.01-.276.125-.276.28z"/>
        <path d="M11.57 1.995H.761c-.146 0-.293-.003-.441 0H.3c-.144 0-.282.127-.276.276a.281.281 0 0 0 .276.276h10.807c.147 0 .294.003.442 0h.02c.144 0 .282-.127.275-.276a.28.28 0 0 0-.276-.276z"/>
        <path d="M9.194 2.27v-.86c0-.147.003-.287-.023-.432a1.124 1.124 0 0 0-.5-.722C8.435.104 8.175.085 7.905.085h-3.81c-.168 0-.336-.007-.502.02a1.117 1.117 0 0 0-.739.488c-.128.19-.18.42-.18.646V2.27c0 .144.126.282.275.276a.281.281 0 0 0 .276-.276V1.25c0-.047.008-.099.006-.144.004.06-.006.034 0 .008.002-.015.006-.03.01-.045.006-.03.017-.058.027-.088.017-.051-.005.016-.006.015-.003-.002.022-.044.023-.048A.589.589 0 0 1 3.332.87c.002-.005.006-.01.01-.015.017-.023.013-.02-.011.012a.671.671 0 0 1 .085-.091c.01-.01.023-.02.034-.029.026-.027-.055.038-.006.006.03-.02.06-.04.093-.056L3.568.68c.053-.028-.044.011-.006.003.026-.007.052-.018.078-.027.008-.003.087-.026.091-.02l-.036.005.038-.002c.02-.002.039-.002.058-.002h3.091c.405 0 .81-.01 1.214 0l.039.002c.006 0 .066.01.02 0-.05-.01.011.003.018.005l.046.011c.026.007.052.017.078.025.06.02-.054-.029.001 0l.049.025c.026.015.05.031.076.048.044.03-.014-.01-.012-.01a.7.7 0 0 1 .098.092c.004.004.03.03.028.034C8.512.837 8.51.83 8.527.857c.002.005.006.01.01.015l.046.077c.007.012.012.028.021.04.021.032-.022-.065-.003-.007.01.03.02.058.028.089l.008.036.007.037c-.006-.038-.006-.048-.005-.026.003.047.005.094.005.14V2.271c0 .145.127.283.276.276a.281.281 0 0 0 .274-.276zM3.185 4.078v5.98c0 .278-.007.555 0 .83v.013c0 .144.127.282.276.276a.281.281 0 0 0 .276-.276V4.92c0-.278.006-.555 0-.831v-.012c0-.145-.127-.283-.276-.276a.279.279 0 0 0-.276.276zM6.21 10.9V4.92c0-.278.007-.556 0-.832v-.012c0-.144-.126-.282-.275-.276a.281.281 0 0 0-.276.276v5.98c0 .278-.007.555 0 .831v.012c0 .145.127.283.276.276a.281.281 0 0 0 .276-.276zM8.685 10.9V4.92c0-.278.006-.556 0-.832v-.012c0-.144-.127-.282-.276-.276a.281.281 0 0 0-.276.276v5.98c0 .278-.007.555 0 .831v.012c0 .145.127.283.276.276a.28.28 0 0 0 .276-.276z"/>
    </g>
</svg>
